<svg width="215" height="48" viewBox="0 0 215 48" fill="none" xmlns="http://www.w3.org/2000/svg">
<g clip-path="url(#clip0_1002_22726)">
<path d="M59.3295 7.76442H60.4762C60.5234 7.75762 60.5715 7.762 60.6168 7.77721C60.662 7.79241 60.7032 7.81804 60.7369 7.85204C60.7706 7.88605 60.796 7.92751 60.8111 7.97313C60.8262 8.01875 60.8306 8.06729 60.8238 8.1149V31.9497C60.8306 31.9973 60.8262 32.0458 60.8111 32.0915C60.796 32.1371 60.7706 32.1785 60.7369 32.2125C60.7032 32.2465 60.662 32.2722 60.6168 32.2874C60.5715 32.3026 60.5234 32.307 60.4762 32.3002H59.3295C59.2823 32.3071 59.2341 32.3028 59.1888 32.2876C59.1435 32.2724 59.1023 32.2468 59.0686 32.2128C59.0348 32.1787 59.0094 32.1372 58.9943 32.0916C58.9793 32.0459 58.975 31.9973 58.9819 31.9497V30.2321C58.9819 30.1625 58.964 30.122 58.9295 30.1097C58.895 30.0984 58.8537 30.1153 58.808 30.1625C58.3307 30.9245 57.6576 31.5421 56.8602 31.9497C56.0083 32.3797 55.0661 32.5962 54.1135 32.581C52.6777 32.6261 51.2689 32.1811 50.1153 31.3183C49.0184 30.467 48.2352 29.2706 47.89 27.9192C47.7189 27.3312 47.6138 26.7256 47.5769 26.114C47.5301 25.4478 47.5071 24.5773 47.5078 23.5022C47.5078 22.4508 47.5309 21.5862 47.5769 20.9085C47.6139 20.2934 47.7071 19.6831 47.8555 19.0853C48.1554 17.7132 48.9246 16.4912 50.0284 15.6333C51.2081 14.7549 52.6476 14.304 54.1135 14.3538C55.0661 14.338 56.0085 14.5546 56.8602 14.9851C57.6576 15.3928 58.3307 16.0103 58.808 16.7724C58.8303 16.842 58.8649 16.8723 58.9117 16.86C58.9585 16.8487 58.9819 16.8072 58.9819 16.7375V8.1149C58.975 8.06728 58.9793 8.0187 58.9944 7.97303C59.0094 7.92736 59.0348 7.88587 59.0686 7.85184C59.1023 7.81781 59.1435 7.79219 59.1888 7.77701C59.2341 7.76184 59.2823 7.75753 59.3295 7.76442ZM58.8593 26.1308C58.9172 25.5703 58.9462 24.6941 58.9462 23.5022C58.9605 22.5956 58.9259 21.6889 58.8426 20.786C58.7817 20.255 58.6651 19.732 58.4949 19.2257C58.265 18.3083 57.7466 17.4905 57.0173 16.8948C56.2508 16.2872 55.2965 15.971 54.3218 16.0018C53.3109 15.9765 52.3204 16.2907 51.506 16.8948C50.7376 17.4627 50.1757 18.2695 49.9069 19.1909C49.6862 19.6739 49.5397 20.1879 49.4723 20.7153C49.373 21.6291 49.3321 22.5483 49.3498 23.4674C49.3353 24.3509 49.3702 25.2345 49.4545 26.114C49.5167 26.633 49.6332 27.144 49.8022 27.6383C50.0195 28.5979 50.5756 29.4451 51.3667 30.022C52.2143 30.6412 53.2408 30.9614 54.2873 30.933C55.276 30.9674 56.2442 30.6443 57.0173 30.022C57.7537 29.4042 58.282 28.5714 58.5294 27.6383C58.7008 27.1515 58.8116 26.6452 58.8593 26.1308V26.1308Z" fill="#0064FF"/>
<path d="M78.119 15.9494C79.1854 17.0132 79.7187 18.4443 79.7191 20.2428V31.9501C79.7258 31.9977 79.7213 32.0462 79.7062 32.0918C79.6911 32.1374 79.6657 32.1788 79.632 32.2128C79.5983 32.2467 79.5572 32.2724 79.512 32.2876C79.4668 32.3029 79.4187 32.3073 79.3714 32.3006H78.2237C78.1765 32.3074 78.1283 32.303 78.0831 32.2878C78.0378 32.2726 77.9967 32.247 77.963 32.213C77.9292 32.179 77.9038 32.1375 77.8887 32.0919C77.8736 32.0463 77.8693 31.9977 77.876 31.9501V30.3022C77.877 30.2817 77.8727 30.2613 77.8636 30.243C77.8544 30.2247 77.8406 30.2091 77.8237 30.1977C77.7892 30.1741 77.749 30.1865 77.7022 30.2325C77.0858 31.0139 76.2766 31.6182 75.3555 31.9849C74.3326 32.394 73.24 32.5966 72.1396 32.5814C70.6876 32.6269 69.2601 32.1964 68.0713 31.3547C66.9581 30.5369 66.4017 29.2867 66.402 27.6039C66.3721 26.816 66.5301 26.0323 66.8628 25.3186C67.1955 24.605 67.6933 23.9822 68.3142 23.5027C69.5889 22.4984 71.3391 21.9959 73.5648 21.9951H77.7368C77.7556 21.9979 77.7748 21.9963 77.7929 21.9903C77.811 21.9843 77.8274 21.9741 77.8409 21.9606C77.8545 21.9471 77.8647 21.9306 77.8708 21.9124C77.8768 21.8942 77.8787 21.8749 77.876 21.8559V20.2776C77.9346 19.1326 77.5407 18.011 76.7807 17.1581C76.0508 16.3875 74.9324 16.0022 73.4255 16.0022C72.4022 15.9606 71.3885 16.2159 70.5049 16.738C70.148 16.9509 69.8377 17.2346 69.5927 17.5719C69.3478 17.9092 69.1732 18.2932 69.0797 18.7004C69.0728 18.7488 69.0566 18.7954 69.0319 18.8375C69.0072 18.8795 68.9745 18.9163 68.9357 18.9456C68.8969 18.9749 68.8527 18.9962 68.8057 19.0083C68.7587 19.0204 68.7098 19.0231 68.6618 19.0161L67.445 18.8408C67.1898 18.7948 67.0851 18.7004 67.1319 18.56C67.236 17.935 67.4714 17.3397 67.8223 16.8139C68.1732 16.2881 68.6315 15.844 69.1666 15.5113C70.4507 14.7012 71.9463 14.2982 73.46 14.3543C75.5003 14.3543 77.0533 14.886 78.119 15.9494ZM76.2592 29.882C76.767 29.5666 77.1837 29.1221 77.4675 28.5931C77.7513 28.0642 77.8922 27.4693 77.876 26.8682V23.6779C77.8787 23.6588 77.8769 23.6394 77.8708 23.6212C77.8648 23.6029 77.8546 23.5863 77.8411 23.5727C77.8276 23.5591 77.8111 23.5489 77.793 23.5427C77.7749 23.5366 77.7557 23.5348 77.7368 23.5375H73.7386C72.0928 23.5375 70.7656 23.888 69.7572 24.5889C69.2781 24.9017 68.8872 25.3339 68.6223 25.8435C68.3574 26.3532 68.2275 26.9232 68.2451 27.4983C68.214 27.9955 68.3057 28.4927 68.512 28.9454C68.7183 29.3981 69.0329 29.7921 69.4274 30.0921C70.3148 30.7064 71.376 31.0139 72.4516 30.9683C73.8003 31.0009 75.1274 30.6223 76.2592 29.882Z" fill="#0064FF"/>
<path d="M92.8098 16.2119H88.7426C88.7237 16.2091 88.7044 16.2108 88.6862 16.2169C88.6681 16.223 88.6516 16.2333 88.638 16.2469C88.6245 16.2605 88.6143 16.2771 88.6083 16.2954C88.6023 16.3137 88.6006 16.3332 88.6033 16.3523V27.4283C88.6033 28.6201 88.87 29.4555 89.4034 29.9344C89.936 30.413 90.7937 30.6523 91.9763 30.6523H92.7753C92.8225 30.6455 92.8706 30.65 92.9158 30.6652C92.961 30.6805 93.0021 30.7061 93.0358 30.7401C93.0695 30.7741 93.0949 30.8155 93.1101 30.8611C93.1252 30.9066 93.1296 30.9551 93.1229 31.0027V31.9497C93.1297 31.9973 93.1253 32.0458 93.1103 32.0915C93.0952 32.1371 93.0698 32.1785 93.036 32.2125C93.0023 32.2466 92.9612 32.2722 92.9159 32.2874C92.8706 32.3026 92.8225 32.307 92.7753 32.3002L91.7323 32.335C90.1099 32.335 88.8871 32.0197 88.064 31.3891C87.2416 30.7578 86.8185 29.6012 86.7948 27.9192V16.3523C86.7974 16.3333 86.7957 16.314 86.7897 16.2958C86.7838 16.2776 86.7737 16.2611 86.7603 16.2475C86.7469 16.2339 86.7306 16.2236 86.7126 16.2174C86.6946 16.2112 86.6754 16.2093 86.6566 16.2119H84.5695C84.5223 16.2187 84.4741 16.2143 84.4289 16.1991C84.3836 16.1839 84.3425 16.1582 84.3088 16.1242C84.275 16.0902 84.2496 16.0488 84.2345 16.0032C84.2194 15.9575 84.2151 15.909 84.2218 15.8614V14.9852C84.2151 14.9376 84.2194 14.889 84.2345 14.8434C84.2496 14.7978 84.275 14.7563 84.3088 14.7223C84.3425 14.6883 84.3836 14.6627 84.4289 14.6475C84.4741 14.6323 84.5223 14.6279 84.5695 14.6347H86.6566C86.6754 14.6372 86.6946 14.6354 86.7126 14.6292C86.7306 14.623 86.7469 14.6127 86.7603 14.5991C86.7737 14.5855 86.7838 14.569 86.7897 14.5508C86.7957 14.5326 86.7974 14.5133 86.7948 14.4943V10.4986C86.788 10.451 86.7924 10.4025 86.8075 10.3568C86.8225 10.3112 86.848 10.2698 86.8817 10.2358C86.9154 10.2017 86.9565 10.1761 87.0018 10.1609C87.0471 10.1457 87.0952 10.1413 87.1424 10.1481H88.2556C88.3029 10.1413 88.351 10.1457 88.3963 10.1609C88.4415 10.1761 88.4826 10.2017 88.5164 10.2358C88.5501 10.2698 88.5755 10.3112 88.5906 10.3568C88.6057 10.4025 88.61 10.451 88.6033 10.4986V14.4943C88.6006 14.5134 88.6023 14.5328 88.6083 14.5511C88.6143 14.5694 88.6245 14.586 88.638 14.5997C88.6516 14.6133 88.6681 14.6236 88.6862 14.6297C88.7044 14.6357 88.7237 14.6375 88.7426 14.6347H92.8098C92.8571 14.6279 92.9053 14.6322 92.9506 14.6474C92.9959 14.6626 93.0371 14.6882 93.071 14.7222C93.1048 14.7562 93.1303 14.7976 93.1455 14.8433C93.1607 14.8889 93.1652 14.9375 93.1586 14.9852V15.8614C93.1652 15.9091 93.1607 15.9576 93.1455 16.0033C93.1303 16.0489 93.1048 16.0904 93.071 16.1244C93.0371 16.1584 92.9959 16.184 92.9506 16.1992C92.9053 16.2143 92.8571 16.2187 92.8098 16.2119Z" fill="#0064FF"/>
<path d="M109.568 15.9494C110.635 17.0132 111.168 18.4443 111.167 20.2428V31.9501C111.174 31.9977 111.17 32.0463 111.155 32.0919C111.139 32.1375 111.114 32.179 111.08 32.213C111.047 32.247 111.005 32.2726 110.96 32.2878C110.915 32.303 110.867 32.3074 110.82 32.3006H109.673C109.626 32.3075 109.578 32.3032 109.532 32.288C109.487 32.2728 109.446 32.2472 109.412 32.2132C109.378 32.1791 109.353 32.1377 109.338 32.092C109.323 32.0463 109.318 31.9977 109.325 31.9501V30.3022C109.326 30.2817 109.322 30.2613 109.313 30.243C109.304 30.2246 109.29 30.2091 109.273 30.1977C109.238 30.1741 109.197 30.1865 109.151 30.2325C108.534 31.0137 107.725 31.6179 106.804 31.9849C105.781 32.3942 104.688 32.5968 103.588 32.5814C102.136 32.6265 100.708 32.1961 99.5194 31.3547C98.4073 30.5369 97.8513 29.2867 97.8513 27.6039C97.8211 26.8159 97.979 26.0321 98.3117 25.3184C98.6445 24.6048 99.1423 23.982 99.7635 23.5027C101.038 22.4984 102.788 21.9959 105.013 21.9951H109.186C109.205 21.9979 109.224 21.9963 109.242 21.9903C109.26 21.9843 109.277 21.9741 109.29 21.9606C109.304 21.9471 109.314 21.9306 109.32 21.9124C109.326 21.8942 109.328 21.8749 109.325 21.8559V20.2776C109.384 19.1326 108.99 18.011 108.23 17.1581C107.499 16.3875 106.381 16.0022 104.875 16.0022C103.851 15.9604 102.838 16.2158 101.954 16.738C101.597 16.9507 101.286 17.2343 101.041 17.5717C100.796 17.909 100.621 18.293 100.528 18.7004C100.521 18.7488 100.505 18.7953 100.48 18.8374C100.456 18.8794 100.423 18.9161 100.384 18.9455C100.346 18.9748 100.302 18.9961 100.255 19.0082C100.208 19.0204 100.159 19.023 100.111 19.0161L98.8943 18.8408C98.6391 18.7948 98.5344 18.7004 98.5812 18.56C98.685 17.9351 98.9202 17.3398 99.2709 16.814C99.6217 16.2882 100.08 15.844 100.615 15.5113C101.899 14.7012 103.395 14.2982 104.909 14.3543C106.948 14.3543 108.501 14.886 109.568 15.9494ZM107.708 29.882C108.216 29.5666 108.633 29.1221 108.917 28.5931C109.201 28.0642 109.341 27.4693 109.325 26.8682V23.6779C109.328 23.6588 109.326 23.6394 109.32 23.6212C109.314 23.6029 109.304 23.5863 109.29 23.5727C109.277 23.5591 109.26 23.5489 109.242 23.5427C109.224 23.5366 109.205 23.5348 109.186 23.5375H105.187C103.541 23.5375 102.214 23.888 101.206 24.5889C100.727 24.9016 100.336 25.3337 100.071 25.8434C99.806 26.3531 99.6758 26.9231 99.6932 27.4983C99.6624 27.9955 99.7542 28.4926 99.9605 28.9453C100.167 29.3979 100.481 29.7919 100.876 30.0921C101.763 30.7066 102.825 31.014 103.901 30.9683C105.25 31.0006 106.577 30.622 107.708 29.882Z" fill="#0064FF"/>
<path d="M119.686 31.8621C118.806 31.5151 118.033 30.941 117.443 30.1973C116.925 29.539 116.643 28.7234 116.644 27.8832V27.4283C116.637 27.3807 116.641 27.3321 116.656 27.2864C116.671 27.2407 116.697 27.1992 116.731 27.1652C116.764 27.1312 116.805 27.1056 116.851 27.0904C116.896 27.0752 116.944 27.0709 116.991 27.0778H118.069C118.116 27.071 118.164 27.0754 118.21 27.0906C118.255 27.1058 118.296 27.1314 118.33 27.1654C118.363 27.1994 118.389 27.2409 118.404 27.2865C118.419 27.3321 118.423 27.3807 118.417 27.4283V27.8136C118.417 28.6785 118.845 29.4203 119.703 30.0389C120.667 30.6903 121.812 31.0156 122.972 30.9679C124.102 31.0194 125.216 30.6863 126.135 30.022C126.511 29.7582 126.818 29.4069 127.029 28.998C127.241 28.589 127.352 28.1345 127.352 27.6732C127.363 27.3756 127.312 27.0791 127.205 26.8018C127.097 26.5246 126.934 26.2725 126.726 26.0612C126.306 25.6386 125.803 25.3101 125.248 25.0974C124.68 24.875 123.828 24.5885 122.693 24.238C121.63 23.9262 120.585 23.5518 119.564 23.1169C118.794 22.7804 118.11 22.271 117.565 21.6274C117.005 20.9439 116.714 20.0767 116.747 19.1909C116.729 18.5255 116.873 17.8659 117.168 17.27C117.462 16.6741 117.897 16.1602 118.434 15.7738C119.558 14.9211 121.035 14.4946 122.867 14.4943C123.981 14.4721 125.087 14.6809 126.118 15.1076C126.981 15.4581 127.737 16.0324 128.308 16.7724C128.824 17.4573 129.1 18.296 129.091 19.1561V19.2606C129.097 19.3082 129.093 19.3569 129.078 19.4026C129.063 19.4483 129.038 19.4899 129.004 19.524C128.97 19.5582 128.929 19.5839 128.884 19.5992C128.838 19.6145 128.79 19.6189 128.743 19.6122H127.665C127.618 19.6189 127.57 19.6145 127.525 19.5992C127.479 19.5839 127.438 19.5582 127.404 19.524C127.371 19.4899 127.345 19.4483 127.33 19.4026C127.315 19.3569 127.311 19.3082 127.318 19.2606V19.1561C127.313 18.7106 127.198 18.2734 126.982 17.8846C126.766 17.4958 126.457 17.1678 126.083 16.9308C125.119 16.3576 124.022 16.0494 122.902 16.037C121.783 16.0246 120.679 16.3083 119.703 16.86C119.333 17.0974 119.03 17.4269 118.823 17.8167C118.616 18.2064 118.512 18.6434 118.521 19.0853C118.503 19.4878 118.596 19.8875 118.789 20.2402C118.982 20.5929 119.268 20.8849 119.616 21.0837C120.7 21.6728 121.85 22.1317 123.041 22.4508C124.134 22.7595 125.208 23.1339 126.257 23.5719C127.045 23.9138 127.75 24.4221 128.326 25.0625C128.924 25.7548 129.235 26.6519 129.195 27.5687C129.214 28.2539 129.071 28.9339 128.778 29.5525C128.485 30.171 128.05 30.7105 127.509 31.1263C126.384 32.026 124.883 32.4757 123.006 32.4754C121.87 32.4973 120.741 32.2887 119.686 31.8621Z" fill="#0064FF"/>
<path d="M145.83 15.9494C146.896 17.0132 147.43 18.4443 147.43 20.2428V31.9501C147.437 31.9977 147.432 32.0462 147.417 32.0918C147.402 32.1374 147.377 32.1788 147.343 32.2128C147.309 32.2467 147.268 32.2724 147.223 32.2876C147.178 32.3028 147.13 32.3073 147.082 32.3006H145.935C145.887 32.3074 145.839 32.303 145.794 32.2878C145.749 32.2726 145.708 32.247 145.674 32.213C145.64 32.179 145.615 32.1375 145.6 32.0919C145.585 32.0463 145.58 31.9977 145.587 31.9501V30.3022C145.588 30.2817 145.584 30.2613 145.574 30.243C145.565 30.2246 145.552 30.2091 145.535 30.1977C145.5 30.1741 145.46 30.1865 145.413 30.2325C144.797 31.0139 143.987 31.6182 143.066 31.9849C142.044 32.394 140.951 32.5966 139.851 32.5814C138.398 32.6269 136.971 32.1964 135.782 31.3547C134.669 30.5369 134.113 29.2867 134.113 27.6039C134.083 26.816 134.241 26.0323 134.574 25.3186C134.906 24.605 135.404 23.9822 136.025 23.5027C137.3 22.4984 139.05 21.9959 141.276 21.9951H145.448C145.467 21.9979 145.486 21.9963 145.504 21.9903C145.522 21.9843 145.538 21.9741 145.552 21.9606C145.565 21.9471 145.576 21.9306 145.582 21.9124C145.588 21.8942 145.59 21.8749 145.587 21.8559V20.2776C145.645 19.1326 145.252 18.011 144.492 17.1581C143.762 16.3875 142.643 16.0022 141.136 16.0022C140.113 15.9606 139.099 16.2159 138.216 16.738C137.859 16.9509 137.549 17.2346 137.304 17.5719C137.059 17.9092 136.884 18.2932 136.791 18.7004C136.784 18.7488 136.768 18.7954 136.743 18.8375C136.718 18.8795 136.685 18.9163 136.647 18.9456C136.608 18.9749 136.564 18.9962 136.517 19.0083C136.47 19.0204 136.421 19.023 136.373 19.0161L135.156 18.8408C134.901 18.7948 134.796 18.7004 134.843 18.56C134.947 17.935 135.182 17.3397 135.533 16.8139C135.884 16.2881 136.342 15.844 136.878 15.5113C138.162 14.7012 139.657 14.2982 141.171 14.3543C143.211 14.3543 144.764 14.886 145.83 15.9494ZM143.97 29.882C144.478 29.5666 144.895 29.1221 145.178 28.5931C145.462 28.0642 145.603 27.4693 145.587 26.8682V23.6779C145.59 23.6588 145.588 23.6394 145.582 23.6212C145.576 23.6029 145.566 23.5863 145.552 23.5727C145.539 23.5591 145.522 23.5489 145.504 23.5427C145.486 23.5366 145.467 23.5348 145.448 23.5375H141.45C139.804 23.5375 138.477 23.888 137.468 24.5889C136.989 24.9017 136.598 25.3339 136.333 25.8435C136.068 26.3532 135.938 26.9232 135.956 27.4983C135.925 27.9955 136.017 28.4927 136.223 28.9454C136.429 29.3981 136.744 29.7921 137.138 30.0921C138.026 30.7064 139.087 31.0139 140.163 30.9683C141.511 31.0009 142.838 30.6223 143.97 29.882Z" fill="#0064FF"/>
<path d="M164.919 14.6349H166.032C166.08 14.6281 166.128 14.6325 166.173 14.6477C166.218 14.6629 166.259 14.6886 166.293 14.7226C166.327 14.7566 166.352 14.798 166.367 14.8437C166.383 14.8893 166.387 14.9378 166.38 14.9854V31.9499C166.387 31.9976 166.383 32.0461 166.367 32.0917C166.352 32.1373 166.327 32.1788 166.293 32.2128C166.259 32.2468 166.218 32.2724 166.173 32.2876C166.128 32.3029 166.08 32.3072 166.032 32.3004H164.919C164.872 32.3072 164.824 32.3029 164.779 32.2876C164.733 32.2724 164.692 32.2468 164.659 32.2128C164.625 32.1788 164.599 32.1373 164.584 32.0917C164.569 32.0461 164.565 31.9976 164.572 31.9499V30.2324C164.572 30.1627 164.548 30.1223 164.503 30.1099C164.456 30.0987 164.421 30.1268 164.398 30.1975C163.922 30.9587 163.241 31.5668 162.433 31.9499C161.522 32.3654 160.53 32.5689 159.53 32.5453C157.962 32.5995 156.432 32.0478 155.254 31.003C154.118 29.9751 153.55 28.5616 153.55 26.7624V14.9854C153.543 14.9378 153.548 14.8893 153.563 14.8437C153.578 14.798 153.603 14.7566 153.637 14.7226C153.671 14.6886 153.712 14.6629 153.757 14.6477C153.802 14.6325 153.85 14.6282 153.898 14.635H155.011C155.058 14.6282 155.106 14.6327 155.151 14.6479C155.197 14.6632 155.238 14.6888 155.271 14.7228C155.305 14.7568 155.33 14.7982 155.346 14.8438C155.361 14.8893 155.365 14.9378 155.359 14.9854V26.2715C155.329 26.8873 155.423 27.5026 155.635 28.0809C155.847 28.6591 156.173 29.1884 156.592 29.637C157.025 30.0633 157.54 30.3953 158.105 30.6123C158.67 30.8293 159.274 30.9267 159.878 30.8985C160.502 30.9276 161.126 30.8293 161.711 30.6094C162.297 30.3895 162.832 30.0527 163.286 29.619C163.717 29.1801 164.053 28.6563 164.275 28.0803C164.496 27.5044 164.597 26.8886 164.572 26.2715V14.9854C164.565 14.9378 164.569 14.8893 164.584 14.8437C164.599 14.798 164.625 14.7566 164.659 14.7226C164.692 14.6886 164.733 14.663 164.779 14.6477C164.824 14.6325 164.872 14.6282 164.919 14.6349Z" fill="#0064FF"/>
<path d="M181.63 14.9146C181.673 14.9303 181.713 14.9547 181.748 14.9862C181.782 15.0178 181.809 15.0559 181.829 15.0984C181.848 15.1409 181.859 15.1869 181.861 15.2336C181.862 15.2804 181.854 15.327 181.838 15.3707L181.525 16.4917C181.518 16.5413 181.499 16.5883 181.47 16.6285C181.44 16.6687 181.401 16.7008 181.356 16.7219C181.312 16.7429 181.262 16.7522 181.213 16.7489C181.163 16.7456 181.115 16.7298 181.073 16.7029C180.517 16.5019 179.925 16.4182 179.335 16.4569C178.724 16.4545 178.119 16.5865 177.564 16.8438C177.008 17.101 176.515 17.4773 176.118 17.9465C175.267 18.9298 174.814 20.1996 174.849 21.504V31.9499C174.856 31.9975 174.851 32.046 174.836 32.0916C174.821 32.1373 174.796 32.1787 174.762 32.2127C174.728 32.2467 174.687 32.2724 174.642 32.2876C174.597 32.3028 174.549 32.3072 174.501 32.3004H173.355C173.307 32.3072 173.259 32.3028 173.214 32.2876C173.169 32.2724 173.128 32.2467 173.094 32.2127C173.06 32.1787 173.035 32.1373 173.02 32.0916C173.005 32.046 173 31.9975 173.007 31.9499V14.9854C173 14.9377 173.005 14.8892 173.02 14.8436C173.035 14.798 173.06 14.7565 173.094 14.7225C173.128 14.6885 173.169 14.6629 173.214 14.6477C173.259 14.6325 173.307 14.6281 173.355 14.6349H174.501C174.549 14.6281 174.597 14.6325 174.642 14.6477C174.687 14.6629 174.728 14.6885 174.762 14.7225C174.796 14.7565 174.821 14.798 174.836 14.8436C174.851 14.8892 174.856 14.9377 174.849 14.9854V17.3691C174.849 17.4387 174.867 17.4803 174.901 17.4915C174.936 17.5027 174.965 17.4735 174.988 17.4039C175.431 16.5414 176.083 15.8057 176.884 15.2651C177.697 14.7406 178.647 14.4723 179.613 14.4945C180.308 14.4747 180.999 14.6186 181.63 14.9146Z" fill="#0064FF"/>
<path d="M183.788 31.669C183.47 31.3747 183.263 30.9773 183.205 30.5457C183.146 30.1141 183.239 29.6754 183.467 29.3055C183.695 28.9356 184.045 28.6578 184.455 28.5201C184.865 28.3824 185.309 28.3935 185.712 28.5515C186.115 28.7094 186.45 29.0044 186.66 29.3852C186.87 29.766 186.941 30.2088 186.861 30.637C186.781 31.0651 186.556 31.4517 186.223 31.7298C185.89 32.0079 185.472 32.16 185.04 32.1599C184.809 32.1687 184.579 32.1296 184.364 32.0452C184.148 31.9607 183.953 31.8327 183.788 31.669Z" fill="#0EC88F"/>
<path d="M204.159 15.9494C205.224 17.0132 205.757 18.4443 205.758 20.2428V31.9501C205.765 31.9977 205.761 32.0463 205.746 32.0919C205.73 32.1375 205.705 32.179 205.671 32.213C205.638 32.247 205.596 32.2726 205.551 32.2878C205.506 32.303 205.458 32.3074 205.411 32.3006H204.263C204.216 32.3074 204.167 32.303 204.122 32.2878C204.077 32.2726 204.036 32.247 204.002 32.213C203.968 32.179 203.943 32.1375 203.928 32.0919C203.913 32.0463 203.908 31.9977 203.915 31.9501V30.3022C203.916 30.2818 203.912 30.2614 203.903 30.2431C203.894 30.2248 203.881 30.2091 203.864 30.1977C203.828 30.1741 203.788 30.1865 203.741 30.2325C203.125 31.0139 202.316 31.6182 201.395 31.9849C200.372 32.3942 199.279 32.5968 198.179 32.5814C196.727 32.6265 195.299 32.1961 194.11 31.3547C192.998 30.5369 192.442 29.2867 192.441 27.6039C192.411 26.8158 192.569 26.032 192.902 25.3183C193.235 24.6047 193.733 23.982 194.354 23.5027C195.628 22.4984 197.378 21.9959 199.604 21.9951H203.777C203.796 21.9978 203.815 21.9961 203.833 21.99C203.851 21.9839 203.867 21.9738 203.881 21.9603C203.894 21.9467 203.904 21.9303 203.91 21.9122C203.916 21.894 203.918 21.8748 203.915 21.8559V20.2776C203.974 19.1326 203.58 18.0107 202.82 17.1581C202.09 16.3875 200.971 16.0022 199.465 16.0022C198.441 15.9606 197.428 16.2159 196.544 16.738C196.187 16.9509 195.877 17.2346 195.632 17.5719C195.387 17.9092 195.212 18.2932 195.119 18.7004C195.112 18.7488 195.096 18.7953 195.071 18.8374C195.047 18.8794 195.014 18.9161 194.975 18.9455C194.937 18.9748 194.893 18.9961 194.846 19.0082C194.799 19.0204 194.75 19.023 194.702 19.0161L193.484 18.8408C193.229 18.7948 193.125 18.7004 193.172 18.56C193.276 17.935 193.511 17.3396 193.862 16.8138C194.212 16.2879 194.671 15.8438 195.206 15.5113C196.49 14.7012 197.986 14.2982 199.5 14.3543C201.539 14.3543 203.092 14.886 204.159 15.9494ZM202.298 29.882C202.806 29.5668 203.223 29.1223 203.507 28.5933C203.791 28.0643 203.931 27.4693 203.915 26.8682V23.6779C203.918 23.6589 203.916 23.6396 203.91 23.6214C203.904 23.6032 203.894 23.5867 203.881 23.5731C203.867 23.5595 203.851 23.5492 203.833 23.543C203.815 23.5368 203.796 23.5349 203.777 23.5375H199.778C198.132 23.5375 196.805 23.888 195.796 24.5889C195.317 24.9019 194.927 25.3341 194.662 25.8437C194.397 26.3534 194.267 26.9232 194.284 27.4983C194.253 27.9955 194.345 28.4926 194.551 28.9453C194.758 29.3979 195.072 29.7919 195.466 30.0921C196.354 30.7066 197.416 31.014 198.492 30.9683C199.84 31.0008 201.167 30.6222 202.298 29.882Z" fill="#0EC88F"/>
<path d="M212.012 10.6033C211.849 10.4377 211.722 10.2404 211.638 10.0234C211.555 9.8064 211.516 9.57441 211.525 9.34175C211.519 9.10789 211.559 8.87521 211.644 8.65742C211.729 8.43964 211.856 8.24115 212.018 8.07365C212.18 7.90615 212.374 7.77304 212.587 7.68215C212.801 7.59126 213.031 7.54443 213.263 7.54443C213.495 7.54443 213.725 7.59126 213.939 7.68215C214.152 7.77304 214.346 7.90615 214.508 8.07365C214.67 8.24115 214.797 8.43964 214.882 8.65742C214.967 8.87521 215.007 9.10789 215.001 9.34175C214.995 9.6881 214.889 10.0252 214.696 10.3118C214.503 10.5985 214.232 10.8223 213.915 10.9561C213.598 11.0898 213.249 11.1277 212.911 11.065C212.573 11.0024 212.261 10.8419 212.012 10.6033ZM212.255 31.9151V14.9505C212.248 14.9029 212.252 14.8544 212.267 14.8088C212.282 14.7631 212.308 14.7217 212.341 14.6877C212.375 14.6537 212.416 14.6281 212.462 14.6128C212.507 14.5976 212.555 14.5933 212.602 14.6001H213.75C213.797 14.5933 213.845 14.5976 213.891 14.6128C213.936 14.6281 213.977 14.6537 214.011 14.6877C214.044 14.7217 214.07 14.7631 214.085 14.8088C214.1 14.8544 214.104 14.9029 214.098 14.9505V31.9151C214.104 31.9627 214.1 32.0112 214.085 32.0568C214.07 32.1025 214.044 32.1439 214.011 32.1779C213.977 32.2119 213.936 32.2375 213.891 32.2528C213.845 32.268 213.797 32.2723 213.75 32.2655H212.602C212.555 32.2723 212.507 32.268 212.462 32.2527C212.416 32.2375 212.375 32.2119 212.341 32.1779C212.308 32.1439 212.282 32.1025 212.267 32.0568C212.252 32.0112 212.248 31.9627 212.255 31.9151Z" fill="#0EC88F"/>
<path d="M34.1674 13.7262C34.0998 11.2744 34.03 8.7396 33.4388 6.46169C32.6466 3.34121 30.9696 1.29968 28.454 0.393714C27.7221 0.138398 26.9538 0.00541181 26.1793 1.80566e-05C25.1998 -0.00233154 24.2331 0.224653 23.3554 0.663088C22.4776 1.10152 21.7129 1.73943 21.1214 2.52656C20.6194 3.20743 20.2793 3.99543 20.1272 4.82978C19.9751 5.66413 20.015 6.52255 20.244 7.33887C20.5722 8.30996 21.1764 9.1623 21.9815 9.7898C22.7865 10.4173 23.7569 10.7922 24.7718 10.8679L25.2945 10.8671V14.2827L25.2721 14.3513C25.1686 14.6021 25.0165 14.8296 24.8248 15.0205L24.6083 15.2392L24.3303 15.1101C22.0618 14.0542 19.5926 13.5082 17.094 13.51H16.7527C12.3623 13.6176 8.17925 15.4151 5.06194 18.5336C2.63626 20.9372 0.98527 24.0218 0.324219 27.3853H1.88922C2.61933 23.9351 4.48298 20.8343 7.17856 18.5846C9.87414 16.3349 13.2439 15.068 16.7425 14.9889L17.056 14.9884C19.4811 14.99 21.8723 15.563 24.0387 16.6617C24.1923 16.7124 24.3523 16.7401 24.5138 16.744C25.6664 16.744 26.8373 15.2926 26.8373 14.249V9.55508C26.8373 9.3118 26.6946 9.3118 26.6339 9.3118H25.1196C24.3724 9.2924 23.6497 9.03883 23.052 8.58633C22.4543 8.13383 22.0113 7.50487 21.7845 6.78686C21.6063 6.22044 21.565 5.61929 21.664 5.03351C21.763 4.44773 21.9994 3.89429 22.3536 3.4193C22.7983 2.82164 23.3764 2.33798 24.0411 2.0075C24.7057 1.67702 25.4383 1.50902 26.1793 1.5171C26.782 1.52839 27.3788 1.63919 27.946 1.84512C32.3919 3.47441 32.5223 9.18846 32.6377 14.2297L32.6389 37.0382C32.6331 37.2074 32.6784 37.3745 32.7687 37.5173C32.8589 37.6601 32.99 37.772 33.1447 37.8382C33.2612 37.8803 33.386 37.8937 33.5086 37.8772C33.6313 37.8607 33.7483 37.8148 33.8497 37.7435C33.9512 37.6721 34.0343 37.5772 34.092 37.4669C34.1497 37.3565 34.1803 37.2338 34.1813 37.109V14.2108L34.1674 13.7262Z" fill="#0064FF"/>
<path d="M25.9899 4.34393C25.8843 4.42038 25.7982 4.52111 25.7388 4.63777C25.6794 4.75443 25.6484 4.88367 25.6484 5.01479C25.6484 5.14591 25.6794 5.27515 25.7388 5.39181C25.7982 5.50847 25.8843 5.6092 25.9899 5.68565C26.1263 5.78879 26.2923 5.84454 26.4628 5.84454C26.6333 5.84454 26.7992 5.78879 26.9356 5.68565C27.0413 5.6092 27.1274 5.50847 27.1868 5.39181C27.2461 5.27515 27.2771 5.14591 27.2771 5.01479C27.2771 4.88367 27.2461 4.75443 27.1868 4.63777C27.1274 4.52111 27.0413 4.42038 26.9356 4.34393C26.7929 4.25724 26.6294 4.21143 26.4628 4.21143C26.2961 4.21143 26.1327 4.25724 25.9899 4.34393Z" fill="#0064FF" stroke="#0064FF" stroke-width="0.08863" stroke-miterlimit="10"/>
<path d="M28.54 27.7417C28.2849 27.7417 28.0354 27.8181 27.8233 27.961C27.6111 28.104 27.4458 28.3071 27.3481 28.5448C27.2505 28.7825 27.225 29.044 27.2748 29.2963C27.3247 29.5486 27.4476 29.7804 27.628 29.9623C27.8085 30.1441 28.0384 30.268 28.2887 30.3181C28.539 30.3683 28.7984 30.3425 29.0342 30.244C29.2699 30.1455 29.4714 29.9788 29.6132 29.7648C29.7549 29.5509 29.8305 29.2994 29.8305 29.0422C29.826 28.6986 29.6886 28.3704 29.4475 28.1275C29.2065 27.8846 28.8809 27.7461 28.54 27.7417Z" fill="#0EC88F"/>
<path fill-rule="evenodd" clip-rule="evenodd" d="M25.1881 41.8025C26.3163 41.8025 26.7126 41.9883 26.9255 42.0882C27.0372 42.1412 27.0376 42.1424 27.1436 42.0438C28.6921 40.5283 33.8617 34.8329 33.9188 34.7778C34.0761 34.609 34.166 34.3875 34.1712 34.1559V24.2712C34.1725 24.1471 34.1492 24.024 34.1027 23.9091C34.0562 23.7942 33.9875 23.6898 33.9004 23.6021C33.8134 23.5143 33.7098 23.445 33.5959 23.3981C33.4819 23.3512 33.3598 23.3278 33.2367 23.3291L23.0574 23.2822C22.8239 23.2884 22.6012 23.3825 22.4332 23.5461L14.7278 31.6066C14.4572 31.8752 14.2299 32.1848 14.0542 32.5242C13.6522 33.6338 13.9319 35.0529 14.8397 36.5193C14.8505 36.5326 14.8646 36.5428 14.8805 36.5489C14.913 36.525 14.936 36.4902 14.9453 36.4507C14.9579 36.4216 14.964 36.3901 14.9633 36.3584C14.9626 36.3267 14.9551 36.2955 14.9412 36.267L14.8695 36.1712L14.8368 36.0952C14.423 35.1214 14.6577 34.1295 15.4132 33.2043L23.3273 24.8368L23.6217 24.8384L31.2388 24.8853C32.4689 24.8853 32.6271 25.7484 32.6271 26.5002V33.7885L32.4245 33.9932C32.323 34.0959 32.1852 34.2283 32.0204 34.387L31.9621 34.4429C31.6808 34.7129 26.0982 40.745 25.109 41.7388C25.1076 41.7552 25.1108 41.7716 25.1184 41.7861C25.1249 41.7939 25.1466 41.8025 25.1881 41.8025Z" fill="#0EC88F"/>
<path d="M32.5538 42.0857C32.5538 42.0857 29.4855 41.6489 28.1424 41.3529C27.078 41.1184 25.6891 40.7462 24.6409 40.4819C22.6501 39.9418 20.701 39.2561 18.809 38.4304C17.2348 37.7555 15.2483 36.4962 14.9152 35.7691C14.4859 34.9319 14.9338 33.9591 15.2275 33.4916L15.5007 33.0916C15.5851 32.9844 15.6406 32.8571 15.6617 32.7219C15.6829 32.5867 15.6691 32.4483 15.6216 32.3201C15.5726 32.1827 15.4844 32.063 15.3682 31.9759C15.2519 31.8887 15.1128 31.8382 14.9681 31.8304C14.8474 31.8161 14.7251 31.8326 14.6125 31.8786C14.4998 31.9245 14.4005 31.9984 14.3236 32.0932C13.8081 32.7136 13.4593 33.4571 13.3108 34.2524C13.1393 35.0618 13.2604 35.9064 13.6524 36.6336L13.6918 36.6907C14.1437 37.4132 15.0965 38.138 15.9937 38.6738C17.4183 39.4532 18.9016 40.1183 20.4297 40.6631C22.8128 41.5806 25.2709 42.2863 27.7759 42.7722C28.9817 43.0214 32.2131 43.5208 32.7304 43.6004C32.7372 43.6015 32.7435 43.6046 32.7486 43.6092C32.7538 43.6138 32.7575 43.6197 32.7595 43.6264C32.7615 43.633 32.7616 43.6401 32.7598 43.6468C32.758 43.6535 32.7544 43.6595 32.7494 43.6642L30.0748 46.4299L29.9459 46.5602L16.9049 46.4446C14.8409 46.416 12.8032 45.974 10.9101 45.1445C9.01708 44.315 7.30644 43.1145 5.87766 41.6127C4.44887 40.1109 3.33044 38.3377 2.58736 36.3964C1.84428 34.455 1.49137 32.3841 1.54916 30.3041C1.57242 29.3226 1.68632 28.3454 1.88941 27.3853H0.324351C0.138153 28.3296 0.031763 29.2881 0.00632528 30.2506C-0.0551858 32.5328 0.332446 34.8046 1.14683 36.9349C1.96121 39.0652 3.18621 41.0117 4.75107 42.6621C6.31592 44.3124 8.18963 45.6338 10.2639 46.55C12.3383 47.4662 14.5721 47.959 16.8364 48H29.82C30.0797 47.9985 30.3365 47.9451 30.5756 47.843C30.8146 47.7408 31.0312 47.5919 31.2128 47.4048L32.7578 45.7568L32.7596 45.7548C33.0718 45.3615 34.1815 44.0713 34.1815 43.7857V43.119C34.1815 42.4684 33.9837 42.3426 32.5538 42.0857Z" fill="#0064FF"/>
<path d="M15.5012 33.0918L15.228 33.4917C14.9343 33.9593 14.4864 34.932 14.9157 35.7692C14.4864 34.932 14.9343 33.9593 15.228 33.4918L15.5012 33.0918Z" fill="#0064FF"/>
<path d="M0.0429688 29.4926C0.0548513 29.3253 0.0714795 29.159 0.088297 28.9927C0.0718879 29.1591 0.0545468 29.3252 0.0429688 29.4926Z" fill="#0064FF"/>
<path d="M27.7737 42.7722C28.9795 43.0215 32.211 43.5209 32.7282 43.6004C32.7349 43.6013 32.7413 43.6042 32.7464 43.6087C32.7515 43.6132 32.7553 43.6191 32.7571 43.6257C32.7553 43.6191 32.7516 43.6132 32.7464 43.6087C32.7413 43.6042 32.7349 43.6013 32.7282 43.6004C32.211 43.5209 28.9795 43.0215 27.7737 42.7722C26.6776 42.548 25.691 42.3189 24.7656 42.0737C25.691 42.3189 26.6776 42.548 27.7737 42.7722Z" fill="#0064FF"/>
<path d="M0.203125 28.0775C0.23902 27.846 0.279332 27.6156 0.32406 27.3862C0.279186 27.6156 0.238874 27.846 0.203125 28.0775Z" fill="#0064FF"/>
<path d="M0.109375 28.7721C0.134036 28.556 0.162705 28.3408 0.195382 28.1265C0.163181 28.341 0.133493 28.5559 0.109375 28.7721Z" fill="#0064FF"/>
<path d="M32.7548 43.6406C32.7538 43.6489 32.7553 43.6574 32.7487 43.6643L30.0742 46.43L32.7488 43.6643C32.7553 43.6574 32.7538 43.6489 32.7548 43.6406Z" fill="#0064FF"/>
<path d="M32.7596 45.757L31.2148 47.4048L32.7596 45.757L32.7607 45.7559L32.7596 45.757Z" fill="#0064FF"/>
<path d="M1.65505 28.8188C1.65079 28.855 1.64856 28.8918 1.64453 28.9281C1.64852 28.8918 1.65088 28.855 1.65505 28.8188Z" fill="#0064FF"/>
<path d="M14.7734 31.8364C14.8372 31.8279 14.9016 31.826 14.9657 31.8305C14.9016 31.826 14.8372 31.8279 14.7734 31.8364Z" fill="#0064FF"/>
<path d="M1.58278 29.5498C1.56491 29.7997 1.55295 30.0512 1.54688 30.3043C1.55277 30.0512 1.56519 29.7998 1.58278 29.5498Z" fill="#0064FF"/>
</g>
<defs>
<clipPath id="clip0_1002_22726">
<rect width="215" height="48" fill="white"/>
</clipPath>
</defs>
</svg>
